<?xml version="1.0" encoding="utf-8"?>
<!-- Generator: Adobe Illustrator 24.1.0, SVG Export Plug-In . SVG Version: 6.00 Build 0)  -->
<svg version="1.1"
	 id="svg1182" text-rendering="geometricprecision" xmlns:cc="http://creativecommons.org/ns#" xmlns:dc="http://purl.org/dc/elements/1.1/" xmlns:inkscape="http://www.inkscape.org/namespaces/inkscape" xmlns:rdf="http://www.w3.org/1999/02/22-rdf-syntax-ns#" xmlns:sodipodi="http://sodipodi.sourceforge.net/DTD/sodipodi-0.dtd" xmlns:svg="http://www.w3.org/2000/svg"
	 xmlns="http://www.w3.org/2000/svg" xmlns:xlink="http://www.w3.org/1999/xlink" x="0px" y="0px" viewBox="0 0 200 200"
	 style="enable-background:new 0 0 200 200;" xml:space="preserve">
<style type="text/css">
	.st0{fill:#FFFFFF;}
</style>
<g id="g1120" transform="translate(52.902014,137.55233)">
	<polygon id="polygon1116" class="st0" points="10.7,5 10.7,26.8 5,26.8 5,31.5 21.2,31.5 21.2,26.8 15.5,26.8 15.5,5 	"/>
</g>
<g id="g1128" transform="translate(24.402014,74.052327)">
	<polygon id="polygon1124" class="st0" points="60.1,5 23.4,5 5,36.8 23.4,68.7 39.6,68.7 39.6,53.2 18.9,44.9 20.7,40.5 39.6,48.1 
		39.6,30.8 30.5,24.7 33.1,20.7 39.6,25.1 39.6,17.7 44.3,17.7 44.3,37.1 55.7,30.4 58.1,34.5 44.3,42.7 44.3,52.9 62.6,44.4 
		64.6,48.7 44.3,58.2 44.3,68.7 60.1,68.7 78.5,36.8 	"/>
</g>
<g id="g1136" transform="matrix(1.2634,-0.7591,0.7591,1.2634,82.802014,75.832327)">
	<path id="rect1132" class="st0" d="M7,5L7,5c1.1,0,2,0.9,2,2l0,16c0,1.1-0.9,2-2,2l0,0c-1.1,0-2-0.9-2-2V7C5,5.9,5.9,5,7,5z"/>
</g>
<g id="g1144" transform="matrix(1.2634,-0.7591,0.7591,1.2634,99.20201,57.372327)">
	<path id="rect1140" class="st0" d="M7,5L7,5c1.1,0,2,0.9,2,2l0,26c0,1.1-0.9,2-2,2l0,0c-1.1,0-2-0.9-2-2L5,7C5,5.9,5.9,5,7,5z"/>
</g>
<g id="g1152" transform="matrix(1.2634,-0.7591,0.7591,1.2634,95.20201,73.552327)">
	<path id="rect1148" class="st0" d="M7,5L7,5c1.1,0,2,0.9,2,2v10c0,1.1-0.9,2-2,2l0,0c-1.1,0-2-0.9-2-2L5,7C5,5.9,5.9,5,7,5z"/>
</g>
<g id="g1160" transform="matrix(1.2634,-0.7591,0.7591,1.2634,111.10201,31.322327)">
	<path id="rect1156" class="st0" d="M7,5L7,5c1.1,0,2,0.9,2,2l0,48c0,1.1-0.9,2-2,2l0,0c-1.1,0-2-0.9-2-2L5,7C5,5.9,5.9,5,7,5z"/>
</g>
<g id="g1168" transform="matrix(1.2634,-0.7591,0.7591,1.2634,144.20201,40.652327)">
	<path id="rect1164" class="st0" d="M7,5L7,5c1.1,0,2,0.9,2,2v14c0,1.1-0.9,2-2,2l0,0c-1.1,0-2-0.9-2-2L5,7C5,5.9,5.9,5,7,5z"/>
</g>
<g id="g1176" transform="matrix(1.2634,-0.7591,0.7591,1.2634,129.60201,39.152327)">
	<path id="rect1172" class="st0" d="M7,5L7,5c1.1,0,2,0.9,2,2l0,26c0,1.1-0.9,2-2,2l0,0c-1.1,0-2-0.9-2-2L5,7C5,5.9,5.9,5,7,5z"/>
</g>
<g id="g1184" transform="matrix(1.2634,-0.7591,0.7591,1.2634,99.50201,34.872327)">
	<path id="rect1180" class="st0" d="M7,5L7,5c1.1,0,2,0.9,2,2l0,52c0,1.1-0.9,2-2,2l0,0c-1.1,0-2-0.9-2-2L5,7C5,5.9,5.9,5,7,5z"/>
</g>
</svg>
