<?xml version="1.0" encoding="utf-8"?>
<!-- Generator: Adobe Illustrator 19.2.1, SVG Export Plug-In . SVG Version: 6.00 Build 0)  -->
<svg version="1.1" id="圖層_1" xmlns="http://www.w3.org/2000/svg" xmlns:xlink="http://www.w3.org/1999/xlink" x="0px" y="0px"
	 viewBox="0 0 235 38" style="enable-background:new 0 0 235 38;" xml:space="preserve">
<style type="text/css">
	.st0{fill:#005AAA;}
	.st1{fill:#ED1C24;}
</style>
<g>
	<path class="st0" d="M222.1,4.6c0,0.6-0.1,1.3-0.4,1.8c-1.1,1.5-3.2,1.1-4.2,2.5c0.8,0.7,2,0.7,2.8,1.8c0.2,0.8-0.3,1.4-0.5,2.1
		c-0.4,0.3-0.9,0.6-1.4,0.5c-1.4-0.7-2-2.4-3.4-2.9c-0.5-0.3-0.3-1.1-0.2-1.6c1.3-1,3-2.2,2.8-4c0.3-1.1-1.7-1.8-0.7-2.5
		C218.9,2.2,221.1,2.7,222.1,4.6"/>
	<path class="st0" d="M228.8,5.8c0,2.1-2.7,2-3.4,3.4c-0.1,0.2,0.2,0.4,0.3,0.5c1.3,0.2,2.9,0.2,3.5,1.6c0.3,0.9,0,1.7-0.4,2.6
		c-0.6,0.7-1.5,1.5-2.4,1.3c-1.6-1.6-2-4.1-4.1-5.2c-1.2-2.1,2.2-2.2,2.7-4c0.9-1-1-2.4,0.3-2.7C226.7,3.5,228.4,4.3,228.8,5.8"/>
	<path class="st0" d="M214.4,5.2c0,2.3-2.6,3.2-4,4.7c0.1,1.6,2,1.2,2.8,2.2c0.6,0.5,0.9,1.2,0.6,1.8c-0.6,0.8-1.2,2.2-2.4,2.1
		c-1.1-1.8-2.6-3.4-4-5.1c-0.3-2.1,3.5-2.8,2.4-5.2c-0.5-0.6-1.2-1.1-1-1.8c1.1-1,3.1-0.5,4.4,0C213.6,4.3,214.4,4.6,214.4,5.2"/>
	<path class="st0" d="M198.7,11.9c-0.2,0-0.3,0.1-0.5,0.1c-0.6,0.1-1.2-0.1-1.4-0.5c0.1-1.3-0.3-2.9,0.3-4.1c0.3,0.1,0.7,0,1.1,0
		c0.6-0.1,1.2-0.1,1.4,0.5C199.2,9.2,200.2,11.4,198.7,11.9 M199.2,19.1c-0.2,0.3-0.6,0.3-1,0.3c-0.3,0-0.6-0.1-0.8-0.1
		c-0.6-0.7-0.1-2.1-0.6-3.1c0.3-0.5,0.2-1.5,1.1-1.3h0.3l1,0.1C199.4,16.2,199.3,17.8,199.2,19.1z M204.5,4.7
		c-0.6-0.3-1.1-1.1-2.1-0.9c-1.4,0.6-2.8,0.5-4.3,0.3c-1-0.2-2-0.3-2.9-0.3c-0.9,0.1-1.7,0.5-2.2,1.4c-0.8,3.7,0.6,7.5,0.5,11.4
		c-0.2,3-0.5,6-2.8,7.9c-1.3,0.9-2.9,0.6-4.1,1.4c-0.1,0.7-0.1,1.3,0.5,1.8c1.7,1.3,4.3,1.3,6.1,0.5c2.2-1,3-3.4,3.4-5.6
		c0.4-0.2,0.9-0.5,1.4-0.6c0.3-0.1,0.7,0,1,0.3l0.2,7.4c0.2,1.3,0,2.9,0.9,4c0.5,0.2,1,0.5,1.5,0.3c2.5-0.6,1.6-3.5,1.9-5.2
		c-0.3-6.9-0.2-13.4,0.3-20.2C204.2,7.3,205.2,6.2,204.5,4.7z"/>
	<path class="st0" d="M220.5,20.4c-0.9,0.2-1.4,1.6-2.5,1.1c-0.1,0-0.2-0.1-0.2-0.1c-0.7-0.3-1.5-0.6-2.2-1.1
		c-0.1-0.3,0.5-0.2,0.7-0.3c0.5,0,1.1,0,1.8,0.1c0.8,0,1.7,0,2.5,0.1V20.4 M234.8,17.7c-2.1-0.2-4.4,0-6.4-0.5
		c-2.5-0.3-4.9-0.5-7.4-0.8l0.1-1c-0.6-1-1.8-1.4-3.1-1.3c-0.8,0.1-1.7,0.3-2.2,0.6c-0.3,0.4,0.3,0.7,0.1,1.2
		c-0.5,1.3-2.1,0.8-3.3,1c-2.6,0.3-5.5,0.2-7.8,1.6c-0.3,0.7-0.7,1.5-0.2,2.2c0.2,0.6,0.9,0.6,1.4,0.6c2.4-0.5,4.7-1.1,7.3-1.3
		c0.4,0.5-0.4,0.8-0.4,1.3c0.6,1,2.6,1,2.6,2.5c-0.8,0.8-1.8,1.6-2.9,1.3c0.2-1.1-0.2-2.1-0.6-2.9c-0.7-0.4-1.5-1-2.4-0.5
		c-2.2,0.5-1,3.2-1,4.8c0.1,1.3-0.8,2.6-0.1,4c0.7,1.1,1.8,1.9,3.3,1.7c2-0.5,4.2-0.7,6.4-0.7c1.2-0.1,2.4,0,3.6,0.1
		c2-0.1,3.7,1.3,5.6,0.5c0.6-0.5,2-0.9,1.8-2.1c-0.3-2.2,0.6-4.7-0.1-7c-0.1-0.7-0.9-0.9-1.6-1.1c-2.5,0.6-2.4,3.6-2.8,5.6
		c-0.5,1.2-2,0.5-2.9,0.7c-1.2-0.3-2.4-0.4-3.5-0.4c-0.6,0-1.2-0.1-1.8-0.1c-1.1,0.3-2.7,0.8-3.9,0.1c-0.1-0.3-0.2-0.8,0.1-1.1
		c0.3-0.1,0.6,0.1,0.7,0.2c1.6,0.9,2.8-0.5,4.1-1.4c0.2-0.1,0.5-0.2,0.7-0.2c1.7-0.1,2.5,2.8,4.5,1.9c0.7-0.3,1.5-1.1,1.7-2
		c-1-1-2.3-1-3.4-2c0.3-0.7,1.5-0.4,2-1c0.7-0.5-0.3-1.1,0-1.7c2.7-0.3,4.9,1.1,7.5,1.3c2.2,0.1,3.6-2.1,4.6-3.9L234.8,17.7z"/>
	<path class="st0" d="M159,24.4c-1.1,0.3-2.2,0.3-3.3,0.4c-0.6,0.1-1.3,0.1-1.8,0.2c-0.5,0-1.2,0.2-1.5-0.2
		c-0.1-1.2-0.4-2.8,0.4-3.7c0.9-0.3,1.9-0.5,2.9-0.6c0.8-0.1,1.7-0.1,2.6-0.1l0.4,0.5c0,0.2-0.1,0.3-0.3,0.5c-0.9,0-1.8-0.1-2.7,0.1
		c-0.7,0.1-1.3,0.2-1.8,0.6c-0.5,0.3-0.5,0.6-0.6,1c0,0.5,0.5,0.8,1,1c0.5,0,1,0,1.5-0.1c1.1-0.1,2.2-0.3,3.3-0.3
		C159,23.9,159.2,24.3,159,24.4 M163.1,23.9l0.2-0.3c1.3-0.3,2.5-0.1,3.6,0.1c1.7,0.3,2.9,0.5,3-1.9c-0.9-0.7-2-0.8-3-0.8
		c-1.1,0-2.2,0.1-3.4-0.1c-0.1-0.1,0-0.4,0-0.5c1-0.7,2.4-0.2,3.4-0.2c1,0.3,2.5,0,3.5,0.5c0.7,1.1,0.2,2.5,0.2,3.8
		c-1.1,0.7-2.4,0.3-3.7,0.2c-0.4-0.1-0.7-0.1-1.1-0.1c-1,0-1.8,0.2-2.6-0.1C163,24.4,163,24.1,163.1,23.9z M182.5,29.7
		c-1.1-0.5-2.2,0.2-3.2,0.3c-4.1,0.9-8.3,0.2-12.4-0.5c-1.1-0.2-2.2-0.5-3.4-0.7c-0.3-0.1-0.6-0.5-0.6-1c0.7-1,2.3-0.3,3.3-0.3
		c0.2,0,0.4,0,0.6,0.1c1.9,0.2,3.6,1.2,5.5,1c0.9-0.3,1.9-1,2-2.1c0.5-2.2-0.3-4.5,0.7-6.7c0.2-0.5,0.2-1.5-0.5-1.8
		c-1-0.9-2.2,0.1-3.4,0.1c-1.4-0.4-2.9-0.3-4.3-0.6c-0.1,0-0.1,0-0.1,0c-1.2-0.3-2.6,0.2-3.7-0.3c0-0.3,0.1-0.6,0.3-0.8
		c0.2-1.8-0.1-3.7,0.3-5.4c0.3-0.7,1-0.8,1.6-1c0.5,0.1,1,0.1,1.6,0.2c2.9,0.1,5.7-0.2,8.2,1c0.2,1.5,0,3.3,0.2,4.9
		c0.5,0.5,1,1.6,1.8,1.3c2.2-1.8,0.7-4.8,1.3-7.2c0-0.5,0.6-1,0.2-1.6c-0.7-1.9-2.3-0.3-3.6-0.3c-2.6-0.7-5.3-0.9-8.1-1
		c-0.8,0-1.7,0-2.5-0.1c-0.2-0.1-0.4-0.5-0.4-0.6c0.7-1,1.8-1.1,2.9-1c0.8,0.1,1.6,0.2,2.4,0.2c2.6-0.2,5.6,2,7.8-0.2
		c0.6-0.7,2-1.7,1.5-2.9h-0.7c-3.6-0.5-7.2-0.9-11-1.1c-3.8-0.2-7.6-0.2-11.3,0c-3.5,0.2-7,0.6-10.3,1.1c-0.6,0.4-1.1,0.9-0.9,1.7
		c0.3,0.6,0.9,1.1,1.5,1.4c2.5,0.5,5.2,0,7.7-0.3c0.6,0,1.3-0.1,2-0.1c1.1-0.1,2.2-0.1,3.1,0.7c0.1,0.4,0.1,0.9-0.3,1.1
		c-0.9-0.1-1.8-0.1-2.8-0.1c-2.6,0.1-5.1,0.6-7.6,0.9c-0.8-0.2-1.8-0.8-2.6,0c-1.1,1.8-0.2,4.2-0.6,6.1c0,1.2,0,2.3,0.7,3.1
		c0.5,0.3,1,0.3,1.5,0.1c0.9-0.9,0.9-1.6,0.9-2.8c0.3-1.1-0.1-2.4,0.9-3.2c2.2-0.6,4.5-1,7-1c0.9-0.1,1.8,0,2.7,0.1l0.5,0.4v4.6
		c-0.2,0.7,0.9,1.3,0.1,1.8c-1.2,0-2.3,0.1-3.3,0.2c-1.1,0.2-2.2,0.4-3.3,0.5c-1.2,0.2-2.3-1-3.6-0.3c-0.6,0.2-1,0.9-0.9,1.7
		c0.6,1.4,1,3.2,0.9,4.9c-0.5,0.9-0.7,2.2-0.2,3.3c0.9,0.6,1.4,1.6,2.5,1.4c1.5-0.7,3.1-0.9,4.7-1.1c0.3-0.1,0.6-0.1,1-0.2
		c0.9-0.1,1.8-0.3,2.5,0.2c0.1,1.4,0.2,2.9,1.6,3.7c2.1,1,4.1,2.1,6.2,3.2c0.9,0.5,1.8,0.9,2.7,1.4c1.8,0.6,3.7,1.7,5.8,1.1
		c3.3-0.8,4.9-4,6.8-6.7C182.3,30.5,182.8,30.1,182.5,29.7z"/>
	<path class="st0" d="M173.5,11.9c0.5,0.5,0,1-0.1,1.4c-1.6,0.5-3.6-0.1-5.5,0c-0.9-0.1-2.2,0.5-2.5-0.6c-0.2-0.5,0.3-1,0.8-1
		C168.6,11.1,171.2,11.5,173.5,11.9"/>
	<path class="st0" d="M157.3,12c0.3,0.2,0,0.7,0,1c-0.7,1-1.8,0.9-2.9,0.7l-4.2,0.5c-0.6-0.2-0.8-0.9-0.6-1.4
		C151.8,11.5,154.7,11.6,157.3,12"/>
	<path class="st0" d="M173.4,15c0.2,0.1,0.3,0.6,0.1,0.7c-1.3,2-3.9,0.5-6,0.8c-0.7-0.1-1.8,0.2-2.2-0.6c-0.1-0.6,0.1-1.3,0.9-1.3
		C168.6,14.5,171,14.9,173.4,15"/>
	<path class="st0" d="M157.5,15.1c-0.2,0.7-0.5,1-1,1.4c-2.1,0.9-3.8-0.3-5.9,0.6c-0.3,0-0.9-0.2-1-0.7c-0.2-0.5,0.4-0.9,0.8-1
		C152.7,15,155.2,14.5,157.5,15.1"/>
	<path class="st0" d="M122.7,18.2c-0.2-0.1-0.5-0.2-0.7-0.3c-0.7-0.5-1.5-1.3-2-2c0-0.6,0.5-1,0.9-1c0.3-0.1,0.7-0.1,1.1-0.2
		c0.6-0.1,1.3-0.1,1.8-0.1l0.2,0.6C123.8,16.2,123.8,17.6,122.7,18.2 M141.5,29.6c-2.1-0.5-4.1-1-6-1.7c-3.2-1.4-5.8-4-8.5-6.1
		c-0.5-0.7,0.3-1.5,0.5-2.2c0.9-1.7,0.4-4,1.7-5.5c0.3-0.6,0.7-1.4,0-2.1c-0.8-0.2-1.8-0.9-2.7-0.2c-0.5,0.2-1.3,0.2-1.6-0.2
		c-0.2-0.7,0.3-1.3,0.6-2.1c1.4-1.7,4.3-0.5,6.1-1.1c1-0.6,1.3-1.6,1.6-2.6c0-0.3-0.3-0.6-0.6-0.6c-2-0.5-4.2-0.5-6.3-0.5
		c-1-0.5,0-1.7-0.1-2.6c-0.7-1.6-2.4-0.8-3.4-0.6c-0.3,0.2-0.5,0.5-0.7,0.7c-0.3,0.8-0.3,1.8-0.8,2.5c-2.2,0.9-6,0-6.7,3.2
		c0.1,0.5,0.4,0.9,0.8,1.1c0.3,0.3,0.8,0.1,1.3-0.1c1.3-0.1,3-0.8,4.1,0.1c0.5,0.7,0.1,1.7-0.1,2.4c-0.7,1.3-2.4,1.1-3.5,1.7
		c-1.2-0.2-2.7-0.2-3.5,0.7c-0.5,0.5-0.2,1.3-0.2,1.7c1.9,2.3,4.4,3.8,6.4,6.1l0.2,0.6c0.1,0.3-0.3,0.5-0.5,0.7
		c-2.2,1-5,1.4-7.2,0.4c-0.4,0.1-0.6,0.3-0.7,0.7c-0.3,0.7,0.3,1.4,1,1.9c2.2,1.5,5.7,1.8,8.3,0.7c0.4-0.1,0.8-0.3,1.2-0.6
		c0.7-0.4,1.3-0.7,2-0.1c2.2,2.2,3.6,4.9,5.4,7.4c1.3,1.3,2.9,1.4,4.6,1c2.6-1,5.6-1.5,7.8-3.5C142,30.4,142,29.8,141.5,29.6z"/>
	<path class="st0" d="M108.3,2.7c0.3,0.9-0.7,2.4,0.6,2.9c0.8,0.1,1.9-0.1,2.4,0.7c0,0.7-0.2,1.3-0.6,1.8c-1.2,0.4-2.7,0.6-3.1,2
		c0.1,1-0.5,2.4,0.4,3.2c1.1,0.2,3-0.5,3.6,0.7c-0.2,0.6,0.2,1.8-0.7,2.1c-1.1,0.5-2.7-0.3-3.2,1.1c-0.2,4,2.6,10-1.8,12.7
		c-1.3,0.8-2.8,1.1-4.4,0.9c-0.9-0.2-1.8-0.6-2.4-1.4c-0.2-0.5,0.1-0.9,0.2-1.4c0.8-0.5,1.6-0.2,2.5-0.4c0.9-0.1,1.7-0.6,2.2-1.3
		c0.8-2.6,0.3-5.6,0.7-8.3c-0.1-0.3-0.5-0.5-0.9-0.5c-2.1,0.2-3.6,1.2-5.3,2.2c-0.7,0.4-0.9-0.5-1.3-1c-0.2-0.3-0.4-0.9-0.1-1.1
		c1.6-2.6,4.5-2.9,7.2-3.7c0.8-1.3,0.5-2.9,0.5-4.5c0-0.3-0.4-0.6-0.6-0.7c-2.4-0.7-4.6,1.9-6.3-0.3c-0.2-0.6,0.2-1.1,0.3-1.7
		c2-1.1,4.3-1.4,6.7-1.9c0.6-0.7,0.1-2.2,0.9-3C106.7,1.4,107.7,2,108.3,2.7"/>
	<path class="st0" d="M77.8,1.9c0.1,0.6-0.3,1.7,0.5,1.9c2.2,0.1,4.3,0.3,6.3,0.9c0.3,0.9-0.5,1.6-1,2.2c-1.7,0.7-3.2-0.3-4.9-0.1
		c-0.5,0.1-1.1-0.2-1.4,0.1c-0.1,0.4,0,0.7,0.3,0.9c1.8,0.1,3.8,0,5.5,0.7c0.1,0.6-0.2,1.3-0.4,1.8c-1.1,1.2-2.8-0.2-4.4,0.2
		c-0.6-0.1-1,0.2-1.3,0.6c0.7,0.5,1.9,0.5,2.9,0.5c4,0.7,8,0.9,12.2,0.4c0.2,0.1,0.6,0.3,0.6,0.7l-0.2,0.5c-1.3,2.1-3.5,4.3-6,4.8
		c-1.4-0.2-2.5-1.1-3.7-1.8c-4.3-2-9.7-1.1-14.5-0.8c-1.8,0.1-4,2.5-5.6,0.4c-0.7-0.8,0.6-2.1-0.7-2.5c-0.9,0.1-2.2-0.7-2.8,0.2
		c-0.2,1.8,1.5,3,3,3.7c0.6,0.3,1.6,0,1.9,0.7c-0.1,1-0.8,2.4-2.1,2.6c-1.2,0.7-1.7-0.9-2.8-0.9c-0.7,0.8-0.6,2-0.7,3
		c0.5,3.3-0.2,7-0.3,10.5c-0.3,0.6-0.9,0.9-1.4,1.2c-1,0-1-1.2-1.6-1.8c-0.6-3.6-0.2-7.1-0.3-10.9c-0.2-0.4-0.6-0.2-0.9-0.2
		c-1.4,1.6-3.1,3.2-5.4,2.7c-1.1-0.3-1.7-1.3-2.2-2.4c0.1-0.6,0-1.4,0.8-1.5c2.7,0.3,5-1,6.5-3.3c0.9-0.9,1.2-2.2,1.1-3.3
		c-0.9-0.7-2-0.2-3-0.2c-1.3,0.1-2.7,1-3.8,0c-0.7-0.5-1-1.5-0.5-2.2c1.9-1.7,4.7-1.5,7.2-1.9l0.3-0.4c0.3-2.2,0.1-4.9,1.1-6.9
		c0.2-0.5,0.8-0.7,1.3-0.7c0.7,0.1,1.6,0.4,1.9,1.1c0.1,2.3-0.3,4.5,0.1,6.7c1.7,1.2,3.7,0.2,5.5,0.7c0.6,1-0.7,1.8-0.7,2.8
		c1.8,0.1,3.4-0.5,5.1-0.7c1.2-0.4,3.2,0.2,3.4-1.1c-0.8-0.5-1.8-0.2-2.6-0.1c-0.6,0.1-1.2,0.4-1.9,0c-0.3-0.2-0.6-0.7-0.6-1.1
		c0.6-2.2,3.2-1.6,5.1-2.1C73,7.3,73.3,7,73,6.8c-1-0.5-1.8,0.1-2.7,0.1c-1,0.2-2.3,1-3.4,0.2c-0.5-0.3-0.1-1-0.1-1.6
		c1.4-1.9,4-1.4,6.1-1.9c0.6-0.6,0.1-2,1.3-2.2C75.4,1.1,77.1,0.1,77.8,1.9"/>
	<path class="st0" d="M65.2,3.3c-0.1,1.6-1.6,2.7-2.9,3.4l-1.8,0.6c0.7-1.4,1.6-3,2.6-4.4C63.9,3,64.8,2.6,65.2,3.3"/>
	<path class="st0" d="M53.2,4.1C53.5,5.4,53.3,7,52.5,8c-1-1-1.8-2.2-1.7-3.7c0.3-0.3,0.1-0.9,0.6-1C52,3.5,52.8,3.3,53.2,4.1"/>
	<path class="st0" d="M77.7,21.1c-0.8-0.4-1.8-0.5-2.8-0.5c-0.8,0-1.7,0.1-2.4,0.1c-0.3-0.2-0.3-0.8-0.1-1.1
		c0.6-0.7,1.5-0.4,2.2-0.7h0.3c1,0.1,2.3-0.1,3.1,0.3C78,19.9,78.1,20.7,77.7,21.1 M77.5,25.3c-0.9-0.2-1.7-0.3-2.6-0.3
		C74,25,73.1,25,72.2,24.9c-0.3-0.3-0.4-0.8-0.3-1.3l0.6-0.3c0.7-0.2,1.6-0.1,2.4,0c1,0.1,2,0.1,2.6-0.7c0.5,0,0.3,0.5,0.5,0.8
		C77.9,24.1,78.2,25.1,77.5,25.3z M82.5,17.7c-0.3-1-1.4-1-2-1.3c-0.7-0.2-1.5-0.1-2,0.5c-1.1-0.1-2.3-0.2-3.5-0.2
		c-0.8,0-1.6,0-2.4,0.2c-0.7-0.4-1.4-0.8-2.2-1c-0.8,0.2-1.5,1.2-1.8,2c-0.2,3.7,0.2,7.9-2.2,10.9c-1,1.7-3,1.3-4.4,2.5
		c-0.2,0.2-0.2,0.7,0,1c0.7,1.4,2.2,1.5,3.6,1.4c2.8-0.4,5-3.2,5.8-5.6c1-0.6,2.3-0.7,3.5-0.5c0.1,0.1,0.2,0.1,0.3,0.1
		c1,0.7,1.8-0.7,2.6,0c0.3,2.5-0.3,4.9,0.8,7.1c0.8,0.7,1.7,0.3,2.6,0.2c0.5-0.2,1-0.7,1.2-1.3L82,23.3C82,21.4,82.4,19.3,82.5,17.7
		z"/>
	<path class="st0" d="M30.9,35H3.7C1.4,35,0,33.4,0,31.3V4.2C0.1,2,0.6,1.6,2.4,1.6l1.3,0.1l7.4,7.4c0.6,0.7,1.6,1.1-0.1,2.4
		l-7.4,7.5c-0.5,0.5-0.9,1.6,0.1,2.4l9.8,9.9c0.6,0.6,1.7,1,2.6,0l7.5-7.4c0.7-1,1.7-0.8,2.3-0.1l7.5,7.4v1.4
		C33.4,34.5,32.1,35,30.9,35"/>
	<path class="st1" d="M7.2,0.4l22.4-0.1c3,0.1,5,2.4,4.9,5l0.1,22.3l-7.4-7.5c-1.1-1.4-2.1-0.4-2.5,0l-7.4,7.5
		c-0.5,0.6-1.7,1.1-2.4,0l-7.5-7.5c-0.9-0.7-1.1-1.4-0.1-2.4l7.6-7.5c1.3-1.3,0.5-2.1,0-2.5L7.2,0.4"/>
</g>
</svg>
