<?xml version="1.0" encoding="utf-8"?>
<!-- Generator: Adobe Illustrator 24.1.0, SVG Export Plug-In . SVG Version: 6.00 Build 0)  -->
<svg version="1.1"
	 id="svg1182" text-rendering="geometricprecision" xmlns:cc="http://creativecommons.org/ns#" xmlns:dc="http://purl.org/dc/elements/1.1/" xmlns:inkscape="http://www.inkscape.org/namespaces/inkscape" xmlns:rdf="http://www.w3.org/1999/02/22-rdf-syntax-ns#" xmlns:sodipodi="http://sodipodi.sourceforge.net/DTD/sodipodi-0.dtd" xmlns:svg="http://www.w3.org/2000/svg"
	 xmlns="http://www.w3.org/2000/svg" xmlns:xlink="http://www.w3.org/1999/xlink" x="0px" y="0px" viewBox="0 0 200 200"
	 style="enable-background:new 0 0 200 200;" xml:space="preserve">
<style type="text/css">
	.st0{fill:url(#polygon1116_1_);}
	.st1{fill:url(#polygon1124_1_);}
	.st2{fill:url(#rect1132_1_);}
	.st3{fill:url(#rect1140_1_);}
	.st4{fill:url(#rect1148_1_);}
	.st5{fill:url(#rect1156_1_);}
	.st6{fill:url(#rect1164_1_);}
	.st7{fill:url(#rect1172_1_);}
	.st8{fill:url(#rect1180_1_);}
</style>
<g id="g1120" transform="translate(52.902014,137.55233)">
	
		<linearGradient id="polygon1116_1_" gradientUnits="userSpaceOnUse" x1="116.0091" y1="90.3177" x2="136.7241" y2="90.3177" gradientTransform="matrix(0.7813 0 0 -1.2799 -85.6398 133.8533)">
		<stop  offset="0" style="stop-color:#419A1C"/>
		<stop  offset="1" style="stop-color:#419A1C"/>
	</linearGradient>
	<polygon id="polygon1116" class="st0" points="10.7,5 10.7,26.8 5,26.8 5,31.5 21.2,31.5 21.2,26.8 15.5,26.8 15.5,5 	"/>
</g>
<g id="g1128" transform="translate(24.402014,74.052327)">
	
		<linearGradient id="polygon1124_1_" gradientUnits="userSpaceOnUse" x1="-40.6125" y1="57.7145" x2="27.8119" y2="57.7145" gradientTransform="matrix(1.0746 0 0 -0.9306 48.6417 90.546)">
		<stop  offset="0" style="stop-color:#419A1C"/>
		<stop  offset="1" style="stop-color:#419A1C"/>
	</linearGradient>
	<polygon id="polygon1124" class="st1" points="60.1,5 23.4,5 5,36.8 23.4,68.7 39.6,68.7 39.6,53.2 18.9,44.9 20.7,40.5 39.6,48.1 
		39.6,30.8 30.5,24.7 33.1,20.7 39.6,25.1 39.6,17.7 44.3,17.7 44.3,37.1 55.7,30.4 58.1,34.5 44.3,42.7 44.3,52.9 62.6,44.4 
		64.6,48.7 44.3,58.2 44.3,68.7 60.1,68.7 78.5,36.8 	"/>
</g>
<g id="g1136" transform="matrix(1.2634,-0.7591,0.7591,1.2634,82.802014,75.832327)">
	
		<linearGradient id="rect1132_1_" gradientUnits="userSpaceOnUse" x1="-251.9899" y1="120.6273" x2="-243.0456" y2="120.6273" gradientTransform="matrix(0.565 1.6974 0.3395 -2.825 106.4262 783.5054)">
		<stop  offset="0" style="stop-color:#419A1C"/>
		<stop  offset="1" style="stop-color:#419A1C"/>
	</linearGradient>
	<path id="rect1132" class="st2" d="M7,5L7,5c1.1,0,2,0.9,2,2l0,16c0,1.1-0.9,2-2,2l0,0c-1.1,0-2-0.9-2-2V7C5,5.9,5.9,5,7,5z"/>
</g>
<g id="g1144" transform="matrix(1.2634,-0.7591,0.7591,1.2634,99.20201,57.372327)">
	
		<linearGradient id="rect1140_1_" gradientUnits="userSpaceOnUse" x1="-220.0025" y1="182.5603" x2="-209.0481" y2="182.5603" gradientTransform="matrix(0.4613 2.0789 0.2772 -3.46 55.8906 1109.0111)">
		<stop  offset="0" style="stop-color:#419A1C"/>
		<stop  offset="1" style="stop-color:#419A1C"/>
	</linearGradient>
	<path id="rect1140" class="st3" d="M7,5L7,5c1.1,0,2,0.9,2,2l0,26c0,1.1-0.9,2-2,2l0,0c-1.1,0-2-0.9-2-2L5,7C5,5.9,5.9,5,7,5z"/>
</g>
<g id="g1152" transform="matrix(1.2634,-0.7591,0.7591,1.2634,95.20201,73.552327)">
	
		<linearGradient id="rect1148_1_" gradientUnits="userSpaceOnUse" x1="-263.4586" y1="85.6431" x2="-255.9753" y2="85.6431" gradientTransform="matrix(0.6753 1.4201 0.4058 -2.3636 148.1676 588.5762)">
		<stop  offset="0" style="stop-color:#419A1C"/>
		<stop  offset="1" style="stop-color:#419A1C"/>
	</linearGradient>
	<path id="rect1148" class="st4" d="M7,5L7,5c1.1,0,2,0.9,2,2v10c0,1.1-0.9,2-2,2l0,0c-1.1,0-2-0.9-2-2L5,7C5,5.9,5.9,5,7,5z"/>
</g>
<g id="g1160" transform="matrix(1.2634,-0.7591,0.7591,1.2634,111.10201,31.322327)">
	
		<linearGradient id="rect1156_1_" gradientUnits="userSpaceOnUse" x1="-147.4783" y1="276.8203" x2="-133.0561" y2="276.8203" gradientTransform="matrix(0.3504 2.737 0.2105 -4.5553 -1.6037 1695.6306)">
		<stop  offset="0" style="stop-color:#419A1C"/>
		<stop  offset="1" style="stop-color:#419A1C"/>
	</linearGradient>
	<path id="rect1156" class="st5" d="M7,5L7,5c1.1,0,2,0.9,2,2l0,48c0,1.1-0.9,2-2,2l0,0c-1.1,0-2-0.9-2-2L5,7C5,5.9,5.9,5,7,5z"/>
</g>
<g id="g1168" transform="matrix(1.2634,-0.7591,0.7591,1.2634,144.20201,40.652327)">
	
		<linearGradient id="rect1164_1_" gradientUnits="userSpaceOnUse" x1="-245.0853" y1="144.3374" x2="-236.6001" y2="144.3374" gradientTransform="matrix(0.5956 1.6103 0.3578 -2.6801 99.3159 795.4947)">
		<stop  offset="0" style="stop-color:#419A1C"/>
		<stop  offset="1" style="stop-color:#419A1C"/>
	</linearGradient>
	<path id="rect1164" class="st6" d="M7,5L7,5c1.1,0,2,0.9,2,2v14c0,1.1-0.9,2-2,2l0,0c-1.1,0-2-0.9-2-2L5,7C5,5.9,5.9,5,7,5z"/>
</g>
<g id="g1176" transform="matrix(1.2634,-0.7591,0.7591,1.2634,129.60201,39.152327)">
	
		<linearGradient id="rect1172_1_" gradientUnits="userSpaceOnUse" x1="-205.8243" y1="205.5005" x2="-194.8699" y2="205.5005" gradientTransform="matrix(0.4613 2.0789 0.2772 -3.46 42.9912 1158.9086)">
		<stop  offset="0" style="stop-color:#419A1C"/>
		<stop  offset="1" style="stop-color:#419A1C"/>
	</linearGradient>
	<path id="rect1172" class="st7" d="M7,5L7,5c1.1,0,2,0.9,2,2l0,26c0,1.1-0.9,2-2,2l0,0c-1.1,0-2-0.9-2-2L5,7C5,5.9,5.9,5,7,5z"/>
</g>
<g id="g1184" transform="matrix(1.2634,-0.7591,0.7591,1.2634,99.50201,34.872327)">
	
		<linearGradient id="rect1180_1_" gradientUnits="userSpaceOnUse" x1="-146.4403" y1="278.0889" x2="-131.4736" y2="278.0889" gradientTransform="matrix(0.3377 2.8403 0.2029 -4.7272 -1.9714 1763.5177)">
		<stop  offset="0" style="stop-color:#419A1C"/>
		<stop  offset="1" style="stop-color:#419A1C"/>
	</linearGradient>
	<path id="rect1180" class="st8" d="M7,5L7,5c1.1,0,2,0.9,2,2l0,52c0,1.1-0.9,2-2,2l0,0c-1.1,0-2-0.9-2-2L5,7C5,5.9,5.9,5,7,5z"/>
</g>
</svg>
