<?xml version="1.0" encoding="utf-8"?>
<!-- Generator: Adobe Illustrator 24.1.0, SVG Export Plug-In . SVG Version: 6.00 Build 0)  -->
<svg version="1.1"
	 id="svg1182" text-rendering="geometricprecision" xmlns:cc="http://creativecommons.org/ns#" xmlns:dc="http://purl.org/dc/elements/1.1/" xmlns:inkscape="http://www.inkscape.org/namespaces/inkscape" xmlns:rdf="http://www.w3.org/1999/02/22-rdf-syntax-ns#" xmlns:sodipodi="http://sodipodi.sourceforge.net/DTD/sodipodi-0.dtd" xmlns:svg="http://www.w3.org/2000/svg"
	 xmlns="http://www.w3.org/2000/svg" xmlns:xlink="http://www.w3.org/1999/xlink" x="0px" y="0px" viewBox="0 0 142.5 139.2"
	 style="enable-background:new 0 0 142.5 139.2;" xml:space="preserve">
<style type="text/css">
	.st0{fill:#FFFFFF;}
</style>
<g id="g1120" transform="translate(52.902014,137.55233)">
	<polygon id="polygon1116" class="st0" points="-18.7,-26.9 -18.7,-5.1 -24.4,-5.1 -24.4,-0.4 -8.2,-0.4 -8.2,-5.1 -13.9,-5.1 
		-13.9,-26.9 	"/>
</g>
<g id="g1128" transform="translate(24.402014,74.052327)">
	<polygon id="polygon1124" class="st0" points="30.7,-26.9 -6,-26.9 -24.4,4.9 -6,36.8 10.2,36.8 10.2,21.3 -10.5,13 -8.7,8.6 
		10.2,16.2 10.2,-1.1 1.1,-7.2 3.7,-11.2 10.2,-6.8 10.2,-14.2 14.9,-14.2 14.9,5.2 26.3,-1.5 28.7,2.6 14.9,10.8 14.9,21 
		33.2,12.5 35.2,16.8 14.9,26.3 14.9,36.8 30.7,36.8 49.1,4.9 	"/>
</g>
<g id="g1136" transform="matrix(1.2634,-0.7591,0.7591,1.2634,82.802014,75.832327)">
	<path id="rect1132" class="st0" d="M1-23.8L1-23.8c1.1,0,2,0.9,2,2l0,16c0,1.1-0.9,2-2,2l0,0c-1.1,0-2-0.9-2-2l0-16
		C-1-22.9-0.1-23.8,1-23.8z"/>
</g>
<g id="g1144" transform="matrix(1.2634,-0.7591,0.7591,1.2634,99.20201,57.372327)">
	<path id="rect1140" class="st0" d="M1-23.8L1-23.8c1.1,0,2,0.9,2,2l0,26c0,1.1-0.9,2-2,2l0,0c-1.1,0-2-0.9-2-2l0-26
		C-1-22.9-0.1-23.8,1-23.8z"/>
</g>
<g id="g1152" transform="matrix(1.2634,-0.7591,0.7591,1.2634,95.20201,73.552327)">
	<path id="rect1148" class="st0" d="M1-23.8L1-23.8c1.1,0,2,0.9,2,2l0,10c0,1.1-0.9,2-2,2l0,0c-1.1,0-2-0.9-2-2l0-10
		C-1-22.9-0.1-23.8,1-23.8z"/>
</g>
<g id="g1160" transform="matrix(1.2634,-0.7591,0.7591,1.2634,111.10201,31.322327)">
	<path id="rect1156" class="st0" d="M1-23.8L1-23.8c1.1,0,2,0.9,2,2l0,48c0,1.1-0.9,2-2,2l0,0c-1.1,0-2-0.9-2-2l0-48
		C-1-22.9-0.1-23.8,1-23.8z"/>
</g>
<g id="g1168" transform="matrix(1.2634,-0.7591,0.7591,1.2634,144.20201,40.652327)">
	<path id="rect1164" class="st0" d="M1-23.8L1-23.8c1.1,0,2,0.9,2,2l0,14c0,1.1-0.9,2-2,2l0,0c-1.1,0-2-0.9-2-2l0-14
		C-1-22.9-0.1-23.8,1-23.8z"/>
</g>
<g id="g1176" transform="matrix(1.2634,-0.7591,0.7591,1.2634,129.60201,39.152327)">
	<path id="rect1172" class="st0" d="M1-23.8L1-23.8c1.1,0,2,0.9,2,2l0,26c0,1.1-0.9,2-2,2l0,0c-1.1,0-2-0.9-2-2l0-26
		C-1-22.9-0.1-23.8,1-23.8z"/>
</g>
<g id="g1184" transform="matrix(1.2634,-0.7591,0.7591,1.2634,99.50201,34.872327)">
	<path id="rect1180" class="st0" d="M1-23.8L1-23.8c1.1,0,2,0.9,2,2l0,52c0,1.1-0.9,2-2,2l0,0c-1.1,0-2-0.9-2-2l0-52
		C-1-22.9-0.1-23.8,1-23.8z"/>
</g>
</svg>
